<?xml version="1.0" standalone="no"?>
<!DOCTYPE svg PUBLIC "-//W3C//DTD SVG 20010904//EN"
 "http://www.w3.org/TR/2001/REC-SVG-20010904/DTD/svg10.dtd">
<svg version="1.0" xmlns="http://www.w3.org/2000/svg"
 width="512.000000pt" height="512.000000pt" viewBox="0 0 512.000000 512.000000"
 preserveAspectRatio="xMidYMid meet">

<g transform="translate(0.000000,512.000000) scale(0.100000,-0.100000)"
fill="#000000" stroke="none">
<path d="M1713 5105 c-28 -8 -74 -25 -101 -38 -27 -13 -323 -212 -658 -443
-335 -230 -648 -445 -696 -476 -196 -130 -264 -252 -256 -461 3 -93 7 -109 41
-181 84 -177 272 -288 462 -273 49 4 231 53 598 161 291 86 534 156 541 156 6
0 16 -26 22 -58 18 -95 60 -170 138 -248 85 -84 141 -113 304 -155 64 -17 134
-35 154 -40 l37 -10 -41 -42 c-77 -80 -131 -174 -169 -297 -30 -96 -33 -283
-6 -372 9 -31 17 -58 17 -61 0 -3 -44 -7 -97 -9 -92 -4 -119 -11 -456 -122
-361 -117 -474 -149 -579 -162 l-58 -6 0 221 0 221 -455 0 -455 0 0 -1205 0
-1205 455 0 455 0 0 225 0 225 168 0 c188 0 356 -13 482 -36 47 -8 430 -105
851 -215 703 -182 773 -199 850 -199 92 0 171 17 245 52 26 12 309 202 628
421 320 220 634 436 699 479 175 118 229 180 269 311 16 55 20 88 16 170 -3
93 -7 109 -41 181 -84 177 -272 288 -462 273 -49 -4 -231 -53 -599 -162 -291
-85 -533 -154 -539 -152 -5 1 -18 36 -28 77 -25 97 -69 168 -150 244 l-66 61
61 66 c109 118 166 239 185 396 19 149 -18 331 -89 446 -17 27 -29 51 -28 52
2 1 131 44 288 94 293 95 402 125 503 137 l57 6 0 -221 0 -221 455 0 455 0 0
1205 0 1205 -455 0 -455 0 0 -225 0 -225 -167 0 c-189 0 -357 13 -483 36 -47
8 -429 105 -850 215 -728 189 -770 199 -855 198 -50 0 -113 -7 -142 -14z m626
-411 c245 -64 572 -149 726 -189 483 -126 533 -134 888 -142 l257 -6 0 -447 0
-447 -72 -7 c-138 -13 -269 -47 -637 -166 -215 -70 -387 -120 -410 -120 -55 0
-977 237 -1026 263 -45 25 -80 73 -96 130 -31 115 75 247 198 247 12 0 200
-44 417 -99 l396 -98 8 31 c27 97 65 266 61 270 -2 2 -179 48 -394 101 -428
107 -496 117 -608 91 -95 -22 -157 -57 -237 -132 l-70 -66 -627 -185 c-690
-202 -673 -199 -739 -140 -45 39 -64 76 -64 127 0 54 21 101 56 129 80 62
1337 919 1383 943 36 19 69 28 99 28 26 0 239 -50 491 -116z m2471 -779 l0
-895 -145 0 -145 0 0 895 0 895 145 0 145 0 0 -895z m-1895 -1036 c108 -41
205 -143 240 -254 26 -84 18 -211 -19 -288 -36 -75 -116 -156 -187 -190 -247
-116 -523 30 -570 301 -35 199 114 409 321 451 59 12 152 3 215 -20z m-2315
-1674 l0 -895 -145 0 -145 0 0 895 0 895 145 0 145 0 0 -895z m1943 624 c260
-66 490 -130 512 -142 45 -25 80 -73 96 -130 31 -115 -75 -247 -198 -247 -12
0 -200 44 -417 99 l-396 98 -8 -31 c-27 -97 -65 -266 -61 -269 2 -2 189 -50
414 -106 282 -70 428 -101 467 -101 137 0 254 49 359 147 l69 65 627 185 c690
202 673 199 739 140 45 -39 64 -76 64 -127 0 -54 -21 -101 -56 -129 -80 -62
-1337 -919 -1383 -943 -35 -19 -69 -28 -99 -28 -27 0 -353 80 -791 194 -410
107 -771 199 -801 206 -141 29 -274 41 -512 47 l-258 6 0 446 0 447 103 12
c142 17 282 55 647 176 210 69 331 104 363 105 31 1 213 -41 520 -120z"/>
</g>
</svg>
