<?xml version="1.0" standalone="no"?>
<!DOCTYPE svg PUBLIC "-//W3C//DTD SVG 20010904//EN"
 "http://www.w3.org/TR/2001/REC-SVG-20010904/DTD/svg10.dtd">
<svg version="1.0" xmlns="http://www.w3.org/2000/svg"
 width="512.000000pt" height="512.000000pt" viewBox="0 0 512.000000 512.000000"
 preserveAspectRatio="xMidYMid meet">

<g transform="translate(0.000000,512.000000) scale(0.100000,-0.100000)"
fill="#000000" stroke="none">
<path d="M2390 4644 c-311 -35 -519 -93 -755 -209 -221 -109 -405 -245 -586
-433 -178 -184 -324 -406 -416 -632 l-48 -116 -274 -32 c-210 -24 -278 -35
-292 -48 -18 -16 -19 -53 -19 -900 l0 -883 22 -21 c12 -11 31 -20 42 -20 12 0
181 18 376 41 l355 41 20 -27 c104 -146 157 -208 269 -321 72 -71 171 -160
219 -196 779 -579 1853 -553 2592 63 258 216 471 503 592 799 l47 116 274 31
c214 25 278 35 293 49 18 17 19 45 19 900 l0 883 -22 21 c-12 11 -31 20 -42
20 -12 0 -181 -18 -376 -41 l-355 -41 -20 27 c-128 179 -293 364 -379 427 -60
44 -113 34 -135 -25 -16 -42 -1 -67 105 -168 96 -93 233 -254 234 -275 0 -6
-48 -15 -115 -23 l-114 -12 -98 102 c-305 318 -692 500 -1121 528 -439 28
-844 -96 -1187 -364 -169 -131 -365 -367 -455 -545 l-29 -58 -116 -12 c-64 -7
-118 -10 -121 -8 -8 9 115 247 172 335 85 128 161 218 287 339 376 361 876
551 1397 531 297 -12 532 -74 810 -214 90 -46 171 -83 181 -83 9 0 28 9 43 21
26 20 35 65 20 103 -9 23 -178 116 -309 171 -249 105 -489 155 -770 160 -99 2
-196 1 -215 -1z m415 -549 c305 -47 600 -194 823 -409 l73 -70 -318 -37 c-175
-21 -595 -69 -933 -108 -338 -39 -632 -74 -654 -77 -52 -8 -76 -35 -76 -82 0
-52 28 -78 84 -75 36 1 528 58 2386 274 283 32 571 66 640 74 69 8 128 15 133
15 4 0 7 -342 7 -760 l0 -760 -22 -4 c-13 -3 -221 -28 -463 -55 -242 -28
-1043 -121 -1780 -206 -737 -85 -1592 -184 -1900 -220 -308 -36 -581 -67 -607
-71 l-48 -6 0 761 0 761 23 4 c12 3 319 39 682 81 603 69 661 77 682 97 25 23
30 66 12 99 -19 36 -52 40 -190 23 -71 -9 -134 -14 -139 -12 -23 7 127 206
245 323 358 360 838 517 1340 440z m1535 -2281 c-24 -61 -125 -248 -176 -324
-209 -313 -505 -557 -857 -708 -643 -276 -1409 -168 -1957 275 -124 100 -360
356 -360 390 0 5 52 15 115 22 l114 12 98 -102 c201 -209 417 -348 689 -442
343 -119 765 -120 1103 -2 133 46 203 78 221 99 20 25 18 81 -5 106 -26 29
-72 25 -168 -15 -323 -133 -693 -155 -1022 -60 -248 72 -464 196 -643 369
l-73 71 448 52 c246 28 803 92 1236 143 434 50 793 90 798 88 5 -2 -21 -48
-58 -103 -67 -98 -224 -267 -331 -356 -49 -40 -54 -48 -54 -84 0 -48 28 -75
77 -75 43 0 145 80 270 212 103 108 185 218 255 345 l50 88 82 11 c46 6 100
12 120 13 36 1 37 0 28 -25z"/>
<path d="M2301 3944 c-24 -30 -26 -52 -10 -87 19 -42 47 -47 269 -47 222 0
250 5 269 47 16 35 14 57 -10 87 l-20 26 -239 0 -239 0 -20 -26z"/>
<path d="M2123 3740 c-45 -19 -56 -80 -22 -124 l20 -26 439 0 439 0 20 26 c26
33 27 75 2 105 l-19 24 -429 2 c-235 1 -438 -2 -450 -7z"/>
<path d="M2503 3198 c-11 -13 -55 -96 -98 -185 -43 -90 -83 -163 -88 -163 -6
0 -92 -12 -191 -26 -204 -30 -226 -40 -226 -103 0 -33 12 -48 141 -177 l140
-141 -30 -177 c-17 -98 -31 -188 -31 -200 0 -33 40 -66 79 -66 22 0 87 29 194
85 89 47 164 85 167 85 3 0 78 -38 167 -85 177 -93 213 -102 251 -62 12 13 22
33 22 44 0 11 -14 101 -31 199 l-30 177 140 141 c129 129 141 144 141 177 0
64 -21 74 -237 105 l-192 27 -76 161 c-89 186 -104 206 -155 206 -25 0 -43 -7
-57 -22z m117 -359 c30 -61 61 -116 69 -122 7 -6 74 -21 148 -32 l135 -21 -91
-86 c-50 -48 -96 -97 -102 -110 -8 -18 -5 -54 11 -147 11 -68 19 -125 16 -128
-2 -2 -51 21 -108 51 -67 36 -117 56 -138 56 -21 0 -71 -20 -138 -56 -57 -30
-106 -53 -108 -51 -3 3 5 60 16 128 16 93 19 129 11 147 -6 13 -52 62 -102
110 l-92 87 124 17 c68 10 134 22 146 28 15 6 43 49 80 125 32 63 60 115 63
115 3 0 30 -50 60 -111z"/>
<path d="M3961 3163 c-11 -10 -41 -59 -65 -109 l-44 -92 -103 -13 c-123 -15
-154 -34 -152 -94 1 -33 11 -47 79 -116 l77 -78 -17 -106 c-16 -98 -17 -108
-1 -131 20 -31 55 -45 87 -36 12 4 60 27 106 50 l83 43 86 -47 c96 -52 142
-59 174 -27 25 25 26 62 5 178 l-15 80 80 77 c69 66 79 81 79 111 0 62 -22 77
-144 95 l-108 16 -49 98 c-27 53 -58 102 -68 108 -29 15 -66 12 -90 -7z m73
-297 c20 -34 34 -46 58 -51 73 -14 72 -13 37 -52 -29 -33 -31 -41 -27 -94 l4
-57 -38 19 c-44 22 -83 24 -118 4 -37 -21 -39 -19 -33 38 5 50 3 55 -29 90
-36 38 -33 47 16 47 31 0 70 32 86 70 7 16 14 30 15 30 2 0 15 -20 29 -44z"/>
<path d="M1080 2787 c-20 -10 -95 -133 -122 -199 -2 -4 -50 -14 -106 -23 -140
-21 -152 -28 -152 -97 0 -24 16 -47 78 -112 l79 -81 -13 -70 c-20 -111 -18
-158 9 -183 34 -32 62 -28 164 25 l92 48 95 -47 c100 -50 124 -55 157 -37 36
19 41 54 23 167 l-17 103 75 77 c82 83 94 105 79 145 -13 34 -34 44 -117 57
-147 22 -129 10 -184 119 -41 83 -54 100 -81 110 -18 6 -32 11 -33 11 -1 0
-12 -6 -26 -13z m87 -344 c8 -7 35 -15 59 -19 l44 -6 -36 -41 c-35 -38 -36
-43 -31 -93 l6 -54 -39 20 c-49 25 -66 25 -115 0 -22 -11 -40 -20 -40 -20 -1
0 0 25 3 56 4 53 3 57 -33 93 l-37 38 49 8 c57 8 68 16 95 69 l20 40 19 -40
c11 -21 27 -44 36 -51z"/>
<path d="M2101 1484 c-26 -33 -27 -75 -2 -105 l19 -24 442 0 442 0 19 24 c26
32 24 77 -6 106 l-24 25 -435 0 -435 0 -20 -26z"/>
<path d="M2334 1280 c-28 -11 -54 -48 -54 -76 0 -12 9 -33 21 -48 l20 -26 239
0 239 0 20 26 c28 35 26 67 -3 101 l-24 28 -219 2 c-120 1 -228 -2 -239 -7z"/>
</g>
</svg>
