<?xml version="1.0" standalone="no"?>
<!DOCTYPE svg PUBLIC "-//W3C//DTD SVG 20010904//EN"
 "http://www.w3.org/TR/2001/REC-SVG-20010904/DTD/svg10.dtd">
<svg version="1.0" xmlns="http://www.w3.org/2000/svg"
 width="512.000000pt" height="512.000000pt" viewBox="0 0 512.000000 512.000000"
 preserveAspectRatio="xMidYMid meet">

<g transform="translate(0.000000,512.000000) scale(0.100000,-0.100000)"
fill="#000000" stroke="none">
<path d="M2415 5010 c-423 -28 -831 -177 -1170 -430 -475 -354 -784 -872 -869
-1461 -9 -59 -16 -132 -16 -163 l0 -56 -65 -40 c-116 -74 -196 -182 -230 -311
-22 -81 -21 -771 0 -854 23 -87 62 -152 136 -227 143 -145 359 -196 514 -123
62 30 138 107 168 173 22 47 22 53 22 607 l0 560 -28 56 c-44 91 -140 167
-231 184 l-38 8 7 78 c16 191 84 433 175 626 192 407 510 730 915 928 731 358
1597 227 2196 -333 335 -314 564 -777 605 -1226 l7 -73 -39 -7 c-91 -18 -187
-94 -231 -185 l-28 -56 0 -560 c0 -553 0 -561 22 -607 45 -97 175 -198 256
-198 l27 0 0 -137 c0 -156 -15 -233 -59 -321 -59 -116 -163 -203 -289 -242
-56 -17 -93 -20 -281 -20 l-217 0 -12 32 c-21 58 -97 134 -170 170 l-67 33
-280 0 -280 0 -66 -32 c-79 -39 -140 -102 -177 -181 -23 -49 -27 -70 -27 -152
1 -84 4 -102 29 -154 35 -72 97 -136 164 -170 77 -39 169 -49 407 -44 187 4
216 7 267 27 71 28 161 107 193 172 l24 47 253 4 c227 4 260 7 318 26 199 67
355 201 440 377 62 129 71 176 77 403 l6 203 41 21 c102 52 217 205 245 328
17 73 14 773 -4 839 -34 129 -114 237 -230 311 l-65 40 0 55 c0 88 -29 270
-66 415 -95 370 -288 711 -557 983 -330 334 -730 546 -1182 627 -91 17 -384
43 -420 38 -5 0 -59 -4 -120 -8z m-1805 -2337 c16 -9 33 -27 39 -40 16 -35 15
-983 -1 -1018 -13 -28 -55 -55 -86 -55 -87 0 -197 76 -238 165 -24 49 -24 54
-24 400 0 347 0 350 24 400 21 45 56 84 109 125 19 14 99 38 130 39 11 1 32
-6 47 -16z m4046 -8 c50 -21 115 -86 140 -140 24 -49 24 -54 24 -400 0 -346 0
-351 -24 -400 -41 -89 -151 -165 -238 -165 -31 0 -73 27 -86 55 -18 40 -16
991 2 1024 28 51 98 61 182 26z m-1268 -2095 c18 -11 40 -35 49 -55 22 -47 6
-105 -40 -137 -30 -22 -42 -23 -232 -26 -231 -4 -266 3 -303 58 -40 58 -13
143 53 170 11 5 115 9 230 9 193 1 213 -1 243 -19z"/>
<path d="M1656 3834 c-132 -32 -260 -131 -323 -250 -62 -116 -63 -130 -63
-760 0 -338 4 -593 10 -625 16 -84 76 -196 140 -260 84 -85 228 -149 332 -149
l38 0 0 -162 c0 -142 3 -169 21 -208 40 -89 111 -138 211 -147 106 -10 123 2
401 274 l249 243 367 0 c293 0 378 3 424 15 186 48 328 192 372 376 22 95 22
1183 0 1278 -43 183 -193 333 -376 376 -92 21 -1713 21 -1803 -1z m1769 -251
c65 -22 136 -93 158 -158 15 -43 17 -112 17 -605 0 -612 0 -609 -61 -683 -17
-20 -52 -49 -77 -65 l-47 -27 -425 -6 c-234 -3 -427 -6 -430 -7 -2 -1 -120
-118 -262 -259 l-258 -257 0 207 c0 302 -4 308 -210 317 -114 5 -131 9 -172
33 -26 15 -60 44 -77 64 -61 74 -61 71 -61 683 0 635 -2 619 80 701 82 82 30
77 956 78 741 1 825 -1 869 -16z"/>
<path d="M1888 2960 c-63 -34 -83 -73 -83 -160 0 -63 4 -80 23 -108 78 -109
257 -91 313 32 36 79 13 169 -56 222 -50 38 -141 44 -197 14z"/>
<path d="M2485 2966 c-16 -8 -42 -26 -57 -42 -108 -116 -26 -304 131 -304 159
0 241 188 133 304 -51 54 -140 72 -207 42z"/>
<path d="M3065 2966 c-58 -26 -105 -101 -105 -168 1 -49 33 -112 76 -144 33
-25 46 -29 104 -29 121 0 186 69 178 189 -4 74 -31 117 -88 146 -45 23 -120
26 -165 6z"/>
</g>
</svg>
